# xmcd
#
# Track frame offsets: 
#        150
#        21232
#        44287
#        67132
#        81320
#        97515
#        108995
#        122722
#        143795
#        164135
#
# Disc length: 2558 seconds
#
# Revision: 3
# Processed by: cddbd v1.5.1PL0 Copyright (c) Steve Scherf et al.
# Submitted via: ExactAudioCopy v0.90b4
#
DISCID=8609fc0a
DTITLE=Buddy Guy - Ultimate Jazz and Blues
DYEAR=2004
DGENRE=Blues
TTITLE0=Buddy's Blues
TTITLE1=Blue Monday
TTITLE2=Everyday I Have The Blues
TTITLE3=Woman Blues
TTITLE4=(I Can't Get No) Satisfaction
TTITLE5=Messin' With The Kid (With Junior Wells)
TTITLE6=No Use Cryin' (With Junior Wells)
TTITLE7=Just To Be With You (With Junior Wells)
TTITLE8=Junior's Shuffle (With Junior Wells)
TTITLE9=Out Of Sight (With Junior Wells)
EXTD=ID3G:   0
EXTT0=
EXTT1=
EXTT2=
EXTT3=
EXTT4=
EXTT5=
EXTT6=
EXTT7=
EXTT8=
EXTT9=
PLAYORDER=
